<?xml version="1.0" encoding="utf-8"?>
<!-- Generator: Adobe Illustrator 19.0.0, SVG Export Plug-In . SVG Version: 6.00 Build 0)  -->
<svg version="1.1" id="Layer_1" xmlns="http://www.w3.org/2000/svg" xmlns:xlink="http://www.w3.org/1999/xlink" x="0px" y="0px"
	 width="248.3px" height="50.8px" viewBox="0 0 248.3 50.8" style="enable-background:new 0 0 248.3 50.8;" xml:space="preserve">
<style type="text/css">
	.st0{fill:#009ABF;}
	.st1{fill:#414042;}
</style>
<g>
	<path class="st0" d="M36.4,18.6l0.6,0c1.9,0.1,3.8,1,5.1,2.7c1.9,2.4,1.9,5.9,0,8.3c-2.5,3.3-7.2,3.6-10.2,0.9
		c-1.8-1.7-2.5-4.2-2-6.5h-6.7c-0.5,4.4,1.1,8.9,4.8,12c5.3,4.4,13.2,4,18.1-0.8c5.4-5.4,5.3-14.2-0.2-19.4
		c-2.5-2.3-5.6-3.5-8.7-3.7v0h-0.1l-22,0.1h0c-1.2,1.9-2.1,4-2.7,6.1c0,0-0.1,0.2-0.1,0.6C12.4,18.7,36.4,18.6,36.4,18.6"/>
	<path class="st0" d="M54.9,7.9C50.6,3.5,45.2,1,39.6,0.3l-1.7-0.1c-0.7,0-1.3,0-2,0l-0.9,0L11.9,0L0.1,0C0.1,0,0,0.1,0,0.1
		c0,3.6,2.9,6.5,6.5,6.5l6,0c0.3,0,20.3,0.1,20.3,0.1c6.6-0.1,12.9,1,17.5,5.9c6.5,6.9,6.8,17.9,0.5,25c-7,8-19.2,8.5-26.9,1.3
		c-2.6-2.4-4.3-5.5-5.2-8.6c-0.6-2.2-0.8-3.7-0.8-4.6c0-0.6,0-1.3,0-1.9h-6.5c-0.4,7.2,2.2,14.6,7.8,19.9
		c10.4,9.9,27.1,9.1,36.6-1.9C64.4,32.1,63.9,17.2,54.9,7.9"/>
	<polygon class="st1" points="87.9,43.7 87.9,38.5 86.1,42.3 85.2,42.3 83.4,38.5 83.4,43.7 82.2,43.7 82.2,35.9 83.4,35.9 
		85.7,40.8 87.9,35.9 89.1,35.9 89.1,43.7 	"/>
	<polygon class="st1" points="91.1,43.7 91.1,35.9 96.1,35.9 96.1,37 92.3,37 92.3,39.3 95.6,39.3 95.6,40.3 92.3,40.3 92.3,42.7 
		96.1,42.7 96.1,43.7 	"/>
	<path class="st1" d="M100.2,37.7L99,41.2h2.4L100.2,37.7z M102.3,43.7l-0.5-1.6h-3.1l-0.5,1.6h-1.3l2.9-7.8h1l2.9,7.8H102.3z"/>
	<path class="st1" d="M106.7,43.8c-1.2,0-2-0.3-2.8-1l0.8-0.8c0.6,0.6,1.2,0.8,2,0.8c1,0,1.6-0.4,1.6-1.2c0-0.4-0.1-0.6-0.3-0.8
		c-0.2-0.2-0.5-0.3-0.9-0.3l-0.9-0.1c-0.6-0.1-1.1-0.3-1.5-0.6c-0.4-0.4-0.6-0.9-0.6-1.5c0-1.4,1-2.3,2.6-2.3c1,0,1.8,0.3,2.4,0.9
		l-0.7,0.7c-0.5-0.5-1.1-0.6-1.7-0.6c-0.9,0-1.4,0.5-1.4,1.2c0,0.3,0.1,0.5,0.3,0.7c0.2,0.2,0.4,0.3,0.9,0.4l0.9,0.1
		c0.7,0.1,1.1,0.3,1.4,0.6c0.4,0.4,0.6,0.9,0.6,1.6C109.5,42.9,108.4,43.8,106.7,43.8"/>
	<path class="st1" d="M113.8,43.8c-1.6,0-2.8-1.1-2.8-2.7v-5.2h1.2V41c0,1,0.6,1.7,1.6,1.7c1,0,1.6-0.6,1.6-1.7v-5.1h1.2v5.2
		C116.6,42.7,115.4,43.8,113.8,43.8"/>
	<path class="st1" d="M121.5,37h-1.8v2.5h1.8c0.8,0,1.3-0.5,1.3-1.2C122.8,37.4,122.3,37,121.5,37 M122.8,43.7l-1.6-3.3h-1.5v3.3
		h-1.2v-7.8h3c1.5,0,2.4,1,2.4,2.3c0,1.1-0.7,1.8-1.6,2.1l1.8,3.5H122.8z"/>
	<polygon class="st1" points="125.7,43.7 125.7,35.9 130.7,35.9 130.7,37 126.9,37 126.9,39.3 130.2,39.3 130.2,40.3 126.9,40.3 
		126.9,42.7 130.7,42.7 130.7,43.7 	"/>
	<polygon class="st1" points="138,43.7 138,38.5 136.2,42.3 135.4,42.3 133.5,38.5 133.5,43.7 132.3,43.7 132.3,35.9 133.5,35.9 
		135.8,40.8 138,35.9 139.2,35.9 139.2,43.7 	"/>
	<polygon class="st1" points="141.3,43.7 141.3,35.9 146.3,35.9 146.3,37 142.4,37 142.4,39.3 145.7,39.3 145.7,40.3 142.4,40.3 
		142.4,42.7 146.3,42.7 146.3,43.7 	"/>
	<polygon class="st1" points="152.7,43.7 149.1,38.2 149.1,43.7 147.9,43.7 147.9,35.9 149,35.9 152.6,41.4 152.6,35.9 153.8,35.9 
		153.8,43.7 	"/>
	<polygon class="st1" points="158.5,37 158.5,43.7 157.3,43.7 157.3,37 155.1,37 155.1,35.9 160.6,35.9 160.6,37 	"/>
	<polygon class="st1" points="167.2,37 167.2,43.7 166,43.7 166,37 163.9,37 163.9,35.9 169.4,35.9 169.4,37 	"/>
	<polygon class="st1" points="170.7,43.7 170.7,35.9 175.7,35.9 175.7,37 171.9,37 171.9,39.3 175.2,39.3 175.2,40.3 171.9,40.3 
		171.9,42.7 175.7,42.7 175.7,43.7 	"/>
	<path class="st1" d="M179.9,43.8c-0.9,0-1.5-0.3-2-0.8c-0.8-0.8-0.8-1.5-0.8-3.2c0-1.6,0-2.4,0.8-3.2c0.5-0.5,1.2-0.8,2-0.8
		c1.4,0,2.5,0.9,2.8,2.4h-1.2c-0.2-0.8-0.7-1.4-1.6-1.4c-0.5,0-0.9,0.2-1.2,0.5c-0.4,0.4-0.5,0.9-0.5,2.4c0,1.5,0.1,2,0.5,2.4
		c0.3,0.3,0.7,0.5,1.2,0.5c0.9,0,1.4-0.5,1.6-1.4h1.2C182.4,42.9,181.3,43.8,179.9,43.8"/>
	<polygon class="st1" points="188.6,43.7 188.6,40.3 185.4,40.3 185.4,43.7 184.3,43.7 184.3,35.9 185.4,35.9 185.4,39.3 
		188.6,39.3 188.6,35.9 189.8,35.9 189.8,43.7 	"/>
	<polygon class="st1" points="196.6,43.7 193,38.2 193,43.7 191.8,43.7 191.8,35.9 192.9,35.9 196.5,41.4 196.5,35.9 197.7,35.9 
		197.7,43.7 	"/>
	<path class="st1" d="M203.5,37.4c-0.3-0.3-0.7-0.5-1.2-0.5c-0.5,0-0.9,0.2-1.2,0.5c-0.4,0.4-0.5,0.9-0.5,2.4c0,1.6,0.1,2,0.5,2.4
		c0.3,0.3,0.7,0.5,1.2,0.5c0.5,0,0.9-0.2,1.2-0.5c0.4-0.4,0.5-0.9,0.5-2.4C203.9,38.3,203.9,37.8,203.5,37.4 M204.3,43
		c-0.5,0.5-1.2,0.8-2,0.8c-0.9,0-1.5-0.3-2-0.8c-0.8-0.8-0.8-1.5-0.8-3.2s0-2.4,0.8-3.2c0.5-0.5,1.2-0.8,2-0.8c0.9,0,1.5,0.3,2,0.8
		c0.8,0.8,0.8,1.5,0.8,3.2S205.1,42.2,204.3,43"/>
	<polygon class="st1" points="206.9,43.7 206.9,35.9 208.1,35.9 208.1,42.7 211.8,42.7 211.8,43.7 	"/>
	<path class="st1" d="M216.4,37.4c-0.3-0.3-0.7-0.5-1.2-0.5c-0.5,0-0.9,0.2-1.2,0.5c-0.4,0.4-0.5,0.9-0.5,2.4c0,1.6,0.1,2,0.5,2.4
		c0.3,0.3,0.7,0.5,1.2,0.5c0.5,0,0.9-0.2,1.2-0.5c0.4-0.4,0.5-0.9,0.5-2.4C216.9,38.3,216.8,37.8,216.4,37.4 M217.3,43
		c-0.5,0.5-1.2,0.8-2,0.8c-0.9,0-1.5-0.3-2-0.8c-0.8-0.8-0.8-1.5-0.8-3.2s0-2.4,0.8-3.2c0.5-0.5,1.2-0.8,2-0.8c0.9,0,1.5,0.3,2,0.8
		c0.8,0.8,0.8,1.5,0.8,3.2S218,42.2,217.3,43"/>
	<path class="st1" d="M224.5,42.9c-0.6,0.6-1.3,0.9-2.2,0.9c-0.9,0-1.5-0.3-2-0.8c-0.8-0.8-0.8-1.6-0.8-3.2c0-1.6,0-2.4,0.8-3.2
		c0.5-0.5,1.2-0.8,2-0.8c1.7,0,2.6,1.1,2.8,2.4H224c-0.2-0.9-0.8-1.4-1.7-1.4c-0.5,0-0.9,0.2-1.2,0.5c-0.4,0.4-0.5,0.9-0.5,2.4
		c0,1.5,0.1,2,0.5,2.4c0.3,0.3,0.7,0.5,1.2,0.5c0.5,0,1-0.2,1.3-0.6c0.3-0.3,0.4-0.7,0.4-1.2v-0.4h-1.7v-1h2.9v1.2
		C225.2,41.7,225,42.4,224.5,42.9"/>
	<rect x="226.9" y="35.9" class="st1" width="1.2" height="7.8"/>
	<polygon class="st1" points="230.2,43.7 230.2,35.9 235.2,35.9 235.2,37 231.4,37 231.4,39.3 234.6,39.3 234.6,40.3 231.4,40.3 
		231.4,42.7 235.2,42.7 235.2,43.7 	"/>
	<path class="st1" d="M238.9,43.8c-1.2,0-2-0.3-2.8-1l0.8-0.8c0.6,0.6,1.2,0.8,2,0.8c1,0,1.6-0.4,1.6-1.2c0-0.4-0.1-0.6-0.3-0.8
		c-0.2-0.2-0.5-0.3-0.9-0.3l-0.9-0.1c-0.6-0.1-1.1-0.3-1.5-0.6c-0.4-0.4-0.6-0.9-0.6-1.5c0-1.4,1-2.3,2.6-2.3c1,0,1.8,0.3,2.4,0.9
		l-0.7,0.7c-0.5-0.5-1.1-0.6-1.7-0.6c-0.9,0-1.4,0.5-1.4,1.2c0,0.3,0.1,0.5,0.3,0.7c0.2,0.2,0.4,0.3,0.9,0.4l0.9,0.1
		c0.7,0.1,1.1,0.3,1.4,0.6c0.4,0.4,0.6,0.9,0.6,1.6C241.7,42.9,240.5,43.8,238.9,43.8"/>
	<path class="st1" d="M94.7,11.3c-0.8-1-2.1-1.6-3.8-1.6h-3.8v16.8h3.8c1.7,0,2.9-0.5,3.8-1.6c0.9-1.1,1-2.7,1-6.8
		C95.7,14.1,95.6,12.4,94.7,11.3 M99.1,27.2c-1.8,2.6-4.3,3.8-7.8,3.8h-9.3V5.2h9.3c3.5,0,5.9,1.2,7.8,3.8c1.6,2.2,1.6,4.8,1.6,9.1
		C100.7,22.4,100.7,25,99.1,27.2"/>
	<path class="st1" d="M118,9.7h-4.7v6.8h4.7c2.2,0,3.6-1.4,3.6-3.4C121.6,11.1,120.2,9.7,118,9.7 M121.9,31l-5-10.3h-3.6V31h-5V5.2
		h10.1c5.2,0,8.3,3.6,8.3,7.9c0,3.6-2.2,5.8-4.7,6.8l5.7,11.1H121.9z"/>
	<path class="st1" d="M145.6,10.9c-0.7-0.8-1.8-1.4-3.2-1.4c-1.4,0-2.5,0.5-3.3,1.4c-0.9,1.1-1.2,2.3-1.2,7.2c0,4.9,0.3,6.1,1.2,7.2
		c0.8,0.8,1.9,1.4,3.3,1.4c1.4,0,2.5-0.6,3.2-1.4c0.9-1.1,1.3-2.3,1.3-7.2C146.9,13.2,146.6,12,145.6,10.9 M149.3,28.5
		c-1.7,1.7-3.9,2.7-6.9,2.7c-3,0-5.2-1-6.9-2.7c-2.6-2.6-2.6-5.5-2.6-10.4c0-4.9,0-7.8,2.6-10.4c1.7-1.7,3.9-2.7,6.9-2.7
		c3,0,5.1,1,6.9,2.7c2.6,2.6,2.6,5.5,2.6,10.4C151.9,23,151.9,25.9,149.3,28.5"/>
	<path class="st1" d="M169.1,9.7h-4.7v7h4.7c2.3,0,3.7-1.4,3.7-3.5C172.8,11.2,171.4,9.7,169.1,9.7 M169.4,21.3h-4.9V31h-5V5.2h10
		c5.3,0,8.5,3.6,8.5,8C177.9,17.6,174.7,21.3,169.4,21.3"/>
	<polygon class="st1" points="184.4,31 184.4,5.2 189.4,5.2 189.4,26.5 201.1,26.5 201.1,31 	"/>
	<polygon class="st1" points="207.5,31 207.5,5.2 224.5,5.2 224.5,9.7 212.6,9.7 212.6,15.8 222.7,15.8 222.7,20.2 212.6,20.2 
		212.6,26.5 224.5,26.5 224.5,31 	"/>
	<polygon class="st1" points="241.5,9.7 241.5,31 236.5,31 236.5,9.7 229.8,9.7 229.8,5.2 248.3,5.2 248.3,9.7 	"/>
</g>
</svg>
